<svg xmlns="http://www.w3.org/2000/svg" xmlns:xlink="http://www.w3.org/1999/xlink" version="1.1" viewbox="0 0 500 200"><defs><marker id="endArrow" markerHeight="4" markerUnits="strokeWidth" markerWidth="5" orient="auto" refX="1" refY="5" viewBox="0 0 10 10"><polyline fill="#000" points="0 0 10 5 0 10 1 5"/></marker><symbol id="child" viewbox="0 0 100 50"><desc>child element</desc><rect width="98" height="48" x="1" y="1" style="fill:#fff;stroke-width:1;stroke:#000"/><text x="50" y="30" fill="#000" font-family="Helvetica" font-size="12" text-anchor="middle">child</text></symbol></defs><line x1="110" x2="110" y1="0" y2="42" stroke="#000" stroke-width="2" marker-end="url(#endArrow)"/><line x1="90" x2="50" y1="100" y2="144" stroke="#000" stroke-width="2" marker-end="url(#endArrow)"/><line x1="130" x2="170" y1="100" y2="144" stroke="#000" stroke-width="2" marker-end="url(#endArrow)"/><line x1="190" x2="280" y1="75" y2="75" stroke="#000" stroke-width="2" marker-end="url(#endArrow)"/><path fill="none" stroke="navy" stroke-dasharray="4 4" stroke-width="2" marker-end="url(#endArrow)" d="M290,50 S244,29 198,48"/><line x1="350" x2="310" y1="100" y2="144" stroke="#000" stroke-width="2" marker-end="url(#endArrow)"/><line x1="390" x2="430" y1="100" y2="144" stroke="#000" stroke-width="2" marker-end="url(#endArrow)"/><g transform="translate(30,50)"><title>host element</title><rect width="160" height="50" x="0" y="0" style="fill:#fff;stroke-width:1;stroke:#000"/><text x="80" y="30" fill="#000" font-family="Helvetica" font-size="12" text-anchor="middle">shadow host</text></g><use x="0" y="150" xlink:href="#child"/><use height="50" x="120" y="150" xlink:href="#child"/><g transform="translate(290,50)"><title>shadow root</title><rect width="160" height="50" x="0" y="0" style="fill:#fff;stroke-width:1;stroke:#000"/><text x="80" y="30" fill="#000" font-family="Helvetica" font-size="12" text-anchor="middle">shadow root</text></g><use x="260" y="150" xlink:href="#child"/><use x="380" y="150" xlink:href="#child"/></svg>